<mxfile host="app.diagrams.net" modified="2023-02-16T15:56:18.417Z" agent="5.0 (Windows)" etag="zPjtl8l1RXgcRSuTA5Jx" version="20.8.20" type="github">
  <diagram id="C5RBs43oDa-KdzZeNtuy" name="Page-1">
    <mxGraphModel dx="1434" dy="782" grid="1" gridSize="10" guides="1" tooltips="1" connect="1" arrows="1" fold="1" page="1" pageScale="1" pageWidth="827" pageHeight="1169" background="none" math="0" shadow="0">
      <root>
        <mxCell id="WIyWlLk6GJQsqaUBKTNV-0" />
        <mxCell id="WIyWlLk6GJQsqaUBKTNV-1" parent="WIyWlLk6GJQsqaUBKTNV-0" />
        <mxCell id="IYLRsE3-Qb3c1APCIsCU-11" style="edgeStyle=orthogonalEdgeStyle;rounded=0;orthogonalLoop=1;jettySize=auto;html=1;exitX=0.5;exitY=1;exitDx=0;exitDy=0;entryX=0.5;entryY=0;entryDx=0;entryDy=0;" edge="1" parent="WIyWlLk6GJQsqaUBKTNV-1" source="IYLRsE3-Qb3c1APCIsCU-0" target="IYLRsE3-Qb3c1APCIsCU-1">
          <mxGeometry relative="1" as="geometry" />
        </mxCell>
        <mxCell id="IYLRsE3-Qb3c1APCIsCU-0" value="START" style="ellipse;whiteSpace=wrap;html=1;" vertex="1" parent="WIyWlLk6GJQsqaUBKTNV-1">
          <mxGeometry x="340" y="70" width="120" height="80" as="geometry" />
        </mxCell>
        <mxCell id="IYLRsE3-Qb3c1APCIsCU-12" style="edgeStyle=orthogonalEdgeStyle;rounded=0;orthogonalLoop=1;jettySize=auto;html=1;" edge="1" parent="WIyWlLk6GJQsqaUBKTNV-1" source="IYLRsE3-Qb3c1APCIsCU-1" target="IYLRsE3-Qb3c1APCIsCU-6">
          <mxGeometry relative="1" as="geometry" />
        </mxCell>
        <mxCell id="IYLRsE3-Qb3c1APCIsCU-1" value="pobierz wartość a wstaw b = 2" style="rounded=0;whiteSpace=wrap;html=1;" vertex="1" parent="WIyWlLk6GJQsqaUBKTNV-1">
          <mxGeometry x="340" y="210" width="120" height="60" as="geometry" />
        </mxCell>
        <mxCell id="IYLRsE3-Qb3c1APCIsCU-13" style="edgeStyle=orthogonalEdgeStyle;rounded=0;orthogonalLoop=1;jettySize=auto;html=1;entryX=0.5;entryY=0;entryDx=0;entryDy=0;" edge="1" parent="WIyWlLk6GJQsqaUBKTNV-1" source="IYLRsE3-Qb3c1APCIsCU-6" target="IYLRsE3-Qb3c1APCIsCU-7">
          <mxGeometry relative="1" as="geometry" />
        </mxCell>
        <mxCell id="IYLRsE3-Qb3c1APCIsCU-6" value="wyświetl a+b" style="rounded=0;whiteSpace=wrap;html=1;" vertex="1" parent="WIyWlLk6GJQsqaUBKTNV-1">
          <mxGeometry x="340" y="330" width="120" height="60" as="geometry" />
        </mxCell>
        <mxCell id="IYLRsE3-Qb3c1APCIsCU-7" value="STOP" style="ellipse;whiteSpace=wrap;html=1;" vertex="1" parent="WIyWlLk6GJQsqaUBKTNV-1">
          <mxGeometry x="340" y="450" width="120" height="80" as="geometry" />
        </mxCell>
      </root>
    </mxGraphModel>
  </diagram>
</mxfile>
